<svg width="20.000732" height="10.000000" viewBox="0 0 20.0007 10" fill="none" xmlns="http://www.w3.org/2000/svg" xmlns:xlink="http://www.w3.org/1999/xlink">
	<desc>
			Created with Pixso.
	</desc>
	<defs>
		<linearGradient id="paint_linear_6_87_0" x1="5.807938" y1="0.000000" x2="5.807938" y2="10.000000" gradientUnits="userSpaceOnUse">
			<stop stop-color="#22A0D9"/>
			<stop offset="1.000000" stop-color="#33C1CC" stop-opacity="0.000000"/>
		</linearGradient>
		<linearGradient id="paint_linear_6_89_0" x1="14.901753" y1="3.997559" x2="14.901753" y2="5.990201" gradientUnits="userSpaceOnUse">
			<stop stop-color="#22A0D9"/>
			<stop offset="1.000000" stop-color="#33C1CC" stop-opacity="0.000000"/>
		</linearGradient>
		<linearGradient id="paint_linear_6_91_0" x1="18.945829" y1="3.997559" x2="18.945829" y2="5.990592" gradientUnits="userSpaceOnUse">
			<stop stop-color="#22A0D9"/>
			<stop offset="1.000000" stop-color="#33C1CC" stop-opacity="0.000000"/>
		</linearGradient>
	</defs>
	<path id="Vector" d="M0.322021 4.22095L4.24414 0.31897C4.62744 -0.0623169 5.25806 -0.119019 5.66113 0.242676C6.09058 0.627075 6.10352 1.28595 5.69995 1.68793L3.92212 3.45691C3.72144 3.65668 3.86377 3.99768 4.14746 3.99768L10.5579 3.99768C11.1001 3.99768 11.5859 4.40161 11.6143 4.94043C11.6445 5.51447 11.1855 5.9903 10.6145 5.9903L4.14746 5.9903C3.86377 5.9903 3.72144 6.33167 3.92212 6.53107L5.65991 8.26019C6.04297 8.64142 6.09961 9.26904 5.73682 9.66943C5.3501 10.0968 4.6875 10.1097 4.28394 9.70856L0.322021 5.76666C-0.107178 5.34003 -0.107178 4.64752 0.322021 4.22095Z" fill="url(#paint_linear_6_87_0)" fill-opacity="1.000000" fill-rule="nonzero"/>
	<path id="Vector" d="M14.3245 3.99756L15.4785 3.99756C16.0315 3.99756 16.48 4.44373 16.48 4.9939C16.48 5.54407 16.0315 5.99017 15.4785 5.99017L14.3245 5.99017C13.7715 5.99017 13.3235 5.54407 13.3235 4.9939C13.3235 4.44373 13.7715 3.99756 14.3245 3.99756Z" fill="url(#paint_linear_6_89_0)" fill-opacity="1.000000" fill-rule="nonzero"/>
	<path id="Vector" d="M18.8916 3.99756L18.9998 3.99756C19.5522 3.99756 20.0007 4.44409 20.0007 4.99426C20.0007 5.54443 19.5522 5.9906 18.9998 5.9906L18.8921 5.9906C18.3386 5.9906 17.8909 5.54443 17.8909 4.99426C17.8909 4.44409 18.3386 3.99756 18.8916 3.99756Z" fill="url(#paint_linear_6_91_0)" fill-opacity="1.000000" fill-rule="nonzero"/>
</svg>
