<svg xmlns="http://www.w3.org/2000/svg">
    <!--icons-->
    <g id="close">
        <rect width="10.6066" height="53.0328" transform="matrix(0.707108 -0.707106 0.707108 0.707106 0 7.5)"
              fill="#22A0D9"/>
        <rect width="10.6066" height="53.0328" transform="matrix(0.707108 0.707106 -0.707108 0.707106 37.5 0.000488281)"
              fill="#22A0D9"/>
    </g>
    <g id="close-shadow">
        <g filter="url(#filter0_d_161_282)">
            <rect width="10.6066" height="53.0328" transform="matrix(0.707108 -0.707106 0.707108 0.707106 4 7.5)"
                  fill="#22A0D9"/>
            <rect width="10.6066" height="53.0328"
                  transform="matrix(0.707108 0.707106 -0.707108 0.707106 41.5 0.000244141)" fill="#22A0D9"/>
        </g>
        <defs>
            <filter id="filter0_d_161_282" x="0" y="0" width="53" height="53" filterUnits="userSpaceOnUse"
                    color-interpolation-filters="sRGB">
                <feFlood flood-opacity="0" result="BackgroundImageFix"/>
                <feColorMatrix in="SourceAlpha" type="matrix" values="0 0 0 0 0 0 0 0 0 0 0 0 0 0 0 0 0 0 127 0"
                               result="hardAlpha"/>
                <feOffset dy="4"/>
                <feGaussianBlur stdDeviation="2"/>
                <feComposite in2="hardAlpha" operator="out"/>
                <feColorMatrix type="matrix" values="0 0 0 0 0 0 0 0 0 0 0 0 0 0 0 0 0 0 0.25 0"/>
                <feBlend mode="normal" in2="BackgroundImageFix" result="effect1_dropShadow_161_282"/>
                <feBlend mode="normal" in="SourceGraphic" in2="effect1_dropShadow_161_282" result="shape"/>
            </filter>
        </defs>
    </g>
    <g id="clock">
        <g clip-path="url(#clip0_62_97)" filter="url(#filter0_i_62_97)">
            <path d="M0 28.7555C0 27.9576 0 27.1596 0 26.3617C0.0148412 26.2738 0.0445236 26.1933 0.0519441 26.1055C0.111309 25.4393 0.163253 24.7731 0.237459 24.1143C0.556544 21.369 1.32087 18.7409 2.47106 16.2372C4.98664 10.7834 8.88245 6.55935 14.1585 3.58717C17.4755 1.7204 21.0448 0.585704 24.8516 0.175748C26.8106 -0.0365508 28.7696 -0.0585128 30.7213 0.139145C33.1552 0.380726 35.515 0.937095 37.8005 1.80093C41.4143 3.16257 44.62 5.16843 47.4027 7.8185C50.0519 10.3441 52.1 13.2797 53.5693 16.6179C54.764 19.3485 55.4986 22.1889 55.7361 25.1538C55.7658 25.5564 55.8103 25.9591 55.8474 26.369C55.8474 27.145 55.8474 27.9283 55.8474 28.7043C55.8251 28.7995 55.8029 28.8946 55.7954 28.9898C55.7064 29.8536 55.6619 30.7175 55.5357 31.574C54.7417 36.7058 52.6565 41.2738 49.2653 45.2563C46.6087 48.3749 43.3882 50.776 39.6408 52.4818C35.1142 54.5389 30.3576 55.3295 25.3858 54.8902C22.4176 54.6267 19.5607 53.9093 16.8225 52.7453C13.4461 51.3105 10.463 49.3046 7.92519 46.6911C3.35411 41.9839 0.712377 36.391 0.111309 29.8829C0.0816265 29.5096 0.037103 29.1362 0 28.7555ZM28.0869 52.7819C29.8827 52.8039 31.8047 52.6208 33.7043 52.1816C37.103 51.3983 40.227 50.022 43.0394 47.9869C47.7589 44.5681 50.972 40.0879 52.612 34.5315C53.8438 30.3734 53.9848 26.1714 52.9905 21.9473C51.5657 15.9078 48.3971 10.9517 43.3363 7.26945C39.0397 4.13622 34.246 2.30606 28.8216 2.30606C26.6993 2.30606 24.5918 2.27677 22.4918 2.75994C18.7667 3.60913 15.3606 5.1245 12.3108 7.42319C8.85277 10.0293 6.21846 13.2943 4.45236 17.2182C2.53784 21.4642 1.84773 25.9151 2.39685 30.5345C2.79756 33.9312 3.88839 37.1084 5.60997 40.0806C7.83615 43.9239 10.8786 46.9766 14.7299 49.2387C18.8038 51.6033 23.1894 52.8405 28.0869 52.7819Z"
                  fill="#39B6C0"/>
            <path d="M26.8329 19.3338C26.7884 19.3338 26.7513 19.3338 26.7068 19.3338C26.7068 20.8272 26.6771 22.328 26.7216 23.8214C26.7439 24.5388 26.5583 25.0439 25.9795 25.5344C24.9629 26.3909 24.7848 27.694 25.4156 28.7921C26.2689 30.2782 28.1315 31.0322 29.8086 29.5461C30.0312 29.3485 30.2538 29.1362 30.4467 28.9092C30.61 28.7189 30.7881 28.6457 31.0478 28.6457C33.5782 28.653 36.1087 28.6457 38.6317 28.631C39.2327 28.6237 39.8412 28.5871 40.4423 28.5139C40.984 28.448 41.3327 28.0088 41.3253 27.5037C41.3179 26.9839 40.9469 26.5373 40.4052 26.4861C39.7818 26.4202 39.1585 26.3763 38.5278 26.369C36.0122 26.3543 33.4892 26.3616 30.9736 26.347C30.8252 26.347 30.6397 26.2738 30.5284 26.1713C30.1054 25.7833 29.6973 25.3807 29.3114 24.9634C29.2001 24.8463 29.1259 24.6559 29.1185 24.4949C29.0888 24.0263 29.0962 23.5578 29.0962 23.0893C29.0739 20.0805 29.0442 17.0644 29.0146 14.0556C29.0146 13.9531 28.9923 13.8214 28.9255 13.7628C28.1835 13.1039 27.8866 12.8916 27.0333 13.6676C27.0258 13.675 27.0184 13.6823 27.011 13.6896C26.9516 13.814 26.8403 13.9385 26.8403 14.0703C26.8329 15.8272 26.8329 17.5769 26.8329 19.3338ZM29.022 7.61346C29.0294 6.87408 29.0294 6.14201 29.022 5.40263C29.022 5.31478 28.9923 5.19033 28.9329 5.13908C28.74 4.97071 28.5396 4.78037 28.3096 4.67788C28.1241 4.59736 27.857 4.55343 27.6863 4.62664C27.3895 4.75841 27.1001 4.96339 26.8923 5.20497C26.781 5.32942 26.8478 5.60028 26.8329 5.80526C26.8255 5.89311 26.8255 5.98828 26.8255 6.07613C26.8255 7.3792 26.8181 8.6896 26.8403 9.99267C26.8478 10.4246 26.9591 10.8419 27.4488 11.0322C28.1983 11.3177 28.9478 10.9151 29.0071 10.1318C29.0665 9.28989 29.022 8.45534 29.022 7.61346ZM39.3737 15.1757C39.4034 15.183 39.4257 15.1976 39.4553 15.205C39.4034 15.7247 39.7373 15.9883 40.1306 16.2079C40.4942 16.4056 40.791 16.2372 41.0804 16.0395C41.1472 15.9956 41.214 15.9517 41.2734 15.8931C41.9783 15.2343 42.6907 14.59 43.3808 13.9165C43.7815 13.5212 44.1823 13.1039 44.5236 12.6501C44.672 12.4524 44.7388 12.1303 44.7091 11.8741C44.6275 11.0981 43.6331 10.6662 42.9875 11.2811C41.8893 12.328 40.8059 13.3821 39.7373 14.4509C39.5592 14.6413 39.4924 14.9341 39.3737 15.1757ZM16.4144 15.2928C16.4589 14.8755 16.2734 14.5754 16.0137 14.3119C15.2939 13.5871 14.5741 12.855 13.832 12.1523C13.4536 11.7936 13.0529 11.4568 12.6225 11.164C12.437 11.0395 12.1327 10.959 11.9175 11.0176C11.1532 11.2225 10.8638 12.0644 11.3536 12.6867C11.7765 13.2138 12.2589 13.7116 12.7486 14.1801C13.4165 14.8243 14.114 15.4539 14.819 16.0615C15.0713 16.2811 15.3904 16.4129 15.7391 16.2152C16.1102 15.9956 16.4441 15.7613 16.4144 15.2928ZM28.9775 47.1889C28.9923 47.1889 29.0071 47.1889 29.022 47.1889C29.022 46.4422 29.0294 45.6881 29.0146 44.9414C29.0146 44.8389 28.9775 44.6925 28.9033 44.634C27.9979 43.8433 27.8644 43.8799 27.0184 44.5754C26.9962 44.5974 26.9665 44.612 26.9516 44.634C26.9071 44.7072 26.8403 44.7804 26.8403 44.8609C26.8478 46.4861 26.8626 48.1113 26.8923 49.7365C26.8997 50.2416 27.3672 50.6222 27.9089 50.6442C28.4358 50.6589 28.9552 50.2782 28.97 49.795C28.9997 48.9239 28.9775 48.0527 28.9775 47.1889ZM12.3257 44.1581C12.6225 44.1874 12.8748 43.9385 13.1197 43.7116C13.9508 42.9136 14.7819 42.1083 15.5907 41.2884C15.8504 41.0249 16.0879 40.7321 16.2808 40.4246C16.637 39.8463 16.3328 39.1874 15.6723 39.0263C15.19 38.9092 14.7967 39.0556 14.4479 39.3777C13.9062 39.8829 13.3423 40.3733 12.8303 40.9078C12.2663 41.4934 11.7394 42.1083 11.22 42.7306C10.9751 43.0234 11.0122 43.3675 11.2348 43.6676C11.4871 43.9971 11.8285 44.1435 12.3257 44.1581ZM39.3811 40.022C39.4999 40.2416 39.5741 40.5051 39.7447 40.6735C40.7985 41.7569 41.8745 42.8331 42.943 43.9019C43.1582 44.1215 43.4476 44.1874 43.7519 44.1508C44.1748 44.0922 44.5236 43.9165 44.7165 43.5212C44.9021 43.1405 44.7536 42.8258 44.5013 42.5403C44.1229 42.1157 43.7667 41.6618 43.3586 41.2665C42.6536 40.571 41.919 39.8975 41.1843 39.224C40.8356 38.9092 40.4274 38.9092 39.997 39.1069C39.6186 39.2826 39.4479 39.5827 39.3811 40.022ZM47.9593 28.631C48.7162 28.631 49.4731 28.631 50.23 28.6237C50.2968 28.6237 50.371 28.6017 50.4378 28.5871C50.9127 28.4993 51.217 28.1552 51.2318 27.6793C51.2541 27.0205 50.7866 26.552 50.0297 26.5373C48.6346 26.5227 47.2395 26.5227 45.8445 26.5373C45.5105 26.5373 45.184 26.6325 44.9392 26.896C44.6423 27.2255 44.583 27.5988 44.7314 28.0088C44.8946 28.4553 45.2582 28.6164 45.7035 28.6237C46.4678 28.6384 47.2173 28.631 47.9593 28.631ZM7.89556 28.631C8.64504 28.631 9.39452 28.6457 10.1366 28.631C10.7673 28.6164 11.1384 28.287 11.1829 27.7306C11.2348 27.0351 10.7673 26.5593 9.98075 26.5446C8.86766 26.5227 7.76199 26.508 6.6489 26.508C6.27787 26.508 5.89942 26.53 5.53581 26.5886C4.94958 26.6837 4.58597 27.1376 4.62308 27.672C4.66018 28.2504 5.03863 28.6091 5.68422 28.6237C6.41886 28.6457 7.16092 28.631 7.89556 28.631Z"
                  fill="white"/>
            <path d="M26.8329 19.3336C26.8329 17.5767 26.8329 15.8197 26.8403 14.0628C26.8403 13.9383 26.9516 13.8139 27.011 13.6821C27.0184 13.6748 27.0258 13.6675 27.0332 13.6601C27.8866 12.8842 28.1908 13.0891 28.9255 13.7553C28.9923 13.8139 29.0145 13.9457 29.0145 14.0481C29.0442 17.0569 29.0665 20.073 29.0962 23.0818C29.1036 23.5503 29.0887 24.0189 29.1184 24.4874C29.1258 24.6484 29.2 24.8388 29.3113 24.9559C29.6972 25.3732 30.1054 25.7758 30.5283 26.1638C30.6396 26.2663 30.8252 26.3395 30.9736 26.3395C33.4891 26.3541 36.0121 26.3468 38.5277 26.3615C39.1511 26.3688 39.7818 26.4127 40.4051 26.4786C40.9468 26.5372 41.3179 26.9764 41.3253 27.4962C41.3327 28.0013 40.9839 28.4405 40.4422 28.5064C39.8412 28.5796 39.2327 28.6162 38.6316 28.6235C36.1012 28.6382 33.5708 28.6455 31.0478 28.6382C30.788 28.6382 30.61 28.7114 30.4467 28.9017C30.2463 29.1287 30.0311 29.341 29.8085 29.5386C28.1315 31.0247 26.2689 30.2634 25.4155 28.7846C24.7848 27.6865 24.9703 26.3834 25.9795 25.5269C26.5583 25.0364 26.7438 24.524 26.7216 23.8139C26.677 22.3205 26.7067 20.8197 26.7067 19.3263C26.7512 19.3336 26.7883 19.3336 26.8329 19.3336Z"
                  fill="#39B6C0"/>
            <path d="M29.0219 7.61346C29.0219 8.44801 29.0664 9.28988 29.0071 10.1171C28.9477 10.9077 28.1982 11.3031 27.4487 11.0176C26.959 10.8345 26.8477 10.4099 26.8402 9.97802C26.818 8.67495 26.8254 7.36455 26.8254 6.06148C26.8254 5.97363 26.8254 5.87846 26.8328 5.79061C26.8477 5.58564 26.7809 5.31477 26.8922 5.19032C27.1 4.94874 27.3894 4.74376 27.6862 4.61199C27.8569 4.53878 28.124 4.58271 28.3095 4.66324C28.5396 4.76572 28.7399 4.95606 28.9329 5.12444C28.9922 5.17568 29.0219 5.30013 29.0219 5.38798C29.0293 6.14201 29.0219 6.88139 29.0219 7.61346Z"
                  fill="#39B6C0"/>
            <path d="M39.3737 15.1755C39.4924 14.934 39.5592 14.6338 39.7373 14.4581C40.8058 13.382 41.8892 12.3278 42.9875 11.2883C43.6331 10.6733 44.6274 11.0979 44.7091 11.8812C44.7387 12.1375 44.672 12.4596 44.5235 12.6572C44.1822 13.1111 43.7815 13.5284 43.3734 13.9237C42.6832 14.5972 41.9709 15.2414 41.2659 15.9003C41.2065 15.9515 41.1398 16.0028 41.073 16.0467C40.7836 16.237 40.4867 16.4127 40.1231 16.2151C39.7224 15.9954 39.3959 15.7319 39.4479 15.2121C39.4256 15.1975 39.3959 15.1902 39.3737 15.1755Z"
                  fill="#39B6C0"/>
            <path d="M16.4144 15.2928C16.444 15.7613 16.1101 15.9956 15.7391 16.2079C15.3903 16.4055 15.0712 16.2738 14.8189 16.0541C14.114 15.4465 13.4164 14.817 12.7486 14.1727C12.2588 13.6969 11.7765 13.2064 11.3535 12.6793C10.8637 12.0644 11.1532 11.2225 11.9175 11.0102C12.1252 10.9517 12.4369 11.0322 12.6224 11.1566C13.0528 11.4495 13.4535 11.7862 13.832 12.1449C14.574 12.8477 15.2938 13.5798 16.0136 14.3045C16.2734 14.5754 16.4589 14.8755 16.4144 15.2928Z"
                  fill="#39B6C0"/>
            <path d="M28.9775 47.1887C28.9775 48.0525 28.9997 48.9237 28.97 49.7875C28.9552 50.278 28.4358 50.6514 27.9089 50.6367C27.3672 50.6221 26.8997 50.2341 26.8923 49.729C26.8626 48.1038 26.8478 46.4786 26.8403 44.8534C26.8403 44.7802 26.9071 44.6997 26.9516 44.6265C26.9665 44.6045 26.9962 44.5899 27.0184 44.5679C27.8644 43.8651 27.9979 43.8358 28.9033 44.6265C28.9775 44.6924 29.0146 44.8315 29.0146 44.9339C29.022 45.6806 29.022 46.4274 29.022 47.1814C29.0071 47.1814 28.9923 47.1814 28.9775 47.1887Z"
                  fill="#39B6C0"/>
            <path d="M12.3256 44.1582C11.8285 44.1362 11.4871 43.9971 11.2422 43.6604C11.0196 43.3529 10.9899 43.0161 11.2274 42.7233C11.7468 42.1011 12.2737 41.4788 12.8377 40.9005C13.3497 40.3661 13.9137 39.8756 14.4554 39.3705C14.7967 39.0484 15.1974 38.9019 15.6798 39.0191C16.3402 39.1874 16.6444 39.8463 16.2882 40.4173C16.0953 40.7321 15.8579 41.0249 15.5981 41.2811C14.7819 42.1011 13.9582 42.9063 13.1271 43.7043C12.8748 43.9459 12.6225 44.1874 12.3256 44.1582Z"
                  fill="#39B6C0"/>
            <path d="M39.3811 40.022C39.4479 39.5754 39.6186 39.2826 39.997 39.0996C40.42 38.8946 40.8281 38.8946 41.1843 39.2167C41.9189 39.8829 42.6536 40.5564 43.3585 41.2592C43.7667 41.6618 44.1229 42.1083 44.5013 42.5329C44.761 42.8184 44.902 43.1332 44.7165 43.5139C44.5236 43.9092 44.1748 44.0849 43.7518 44.1435C43.4476 44.1874 43.1582 44.1142 42.943 43.8946C41.867 42.8258 40.7984 41.757 39.7447 40.6662C39.574 40.5051 39.4998 40.2416 39.3811 40.022Z"
                  fill="#39B6C0"/>
            <path d="M47.9593 28.6311C47.2098 28.6311 46.4603 28.6384 45.7183 28.6311C45.273 28.6237 44.9094 28.47 44.7462 28.0161C44.5978 27.6062 44.6571 27.2328 44.954 26.9034C45.1914 26.6398 45.5179 26.5447 45.8593 26.5447C47.2543 26.53 48.6494 26.53 50.0445 26.5447C50.8014 26.552 51.2689 27.0205 51.2466 27.6867C51.2318 28.1625 50.9275 28.5139 50.4526 28.5945C50.3858 28.6091 50.3116 28.6311 50.2448 28.6311C49.4805 28.6311 48.7162 28.6311 47.9593 28.6311Z"
                  fill="#39B6C0"/>
            <path d="M7.89554 28.6308C7.1609 28.6308 6.41884 28.6454 5.6842 28.6235C5.03861 28.6088 4.65274 28.2501 4.62306 27.6718C4.59338 27.1374 4.94957 26.6835 5.53579 26.5883C5.8994 26.5298 6.27785 26.5078 6.64888 26.5078C7.76197 26.5078 8.87506 26.5151 9.98073 26.5444C10.7673 26.5591 11.2348 27.0422 11.1829 27.7304C11.1383 28.2794 10.7673 28.6162 10.1366 28.6308C9.3945 28.6454 8.64502 28.6381 7.89554 28.6308Z"
                  fill="#39B6C0"/>
        </g>
        <defs>
            <filter id="filter0_i_62_97" x="0" y="0" width="55.8547" height="59" filterUnits="userSpaceOnUse"
                    color-interpolation-filters="sRGB">
                <feFlood flood-opacity="0" result="BackgroundImageFix"/>
                <feBlend mode="normal" in="SourceGraphic" in2="BackgroundImageFix" result="shape"/>
                <feColorMatrix in="SourceAlpha" type="matrix" values="0 0 0 0 0 0 0 0 0 0 0 0 0 0 0 0 0 0 127 0"
                               result="hardAlpha"/>
                <feOffset dy="4"/>
                <feGaussianBlur stdDeviation="2"/>
                <feComposite in2="hardAlpha" operator="arithmetic" k2="-1" k3="1"/>
                <feColorMatrix type="matrix" values="0 0 0 0 0 0 0 0 0 0 0 0 0 0 0 0 0 0 0.7 0"/>
                <feBlend mode="normal" in2="shape" result="effect1_innerShadow_62_97"/>
            </filter>
            <clipPath id="clip0_62_97">
                <rect width="55.8548" height="55" fill="white"/>
            </clipPath>
        </defs>
    </g>
    <g id="check">
        <path d="M0.337319 0.67024L0.336783 0.670777C0.281199 0.726361 0.250006 0.801548 0.250006 0.882001C0.250006 0.964658 0.282062 1.04184 0.336405 1.09685C0.336484 1.09693 0.336564 1.09701 0.336643 1.09709L4.78492 5.55336C4.78508 5.55352 4.78524 5.55368 4.78539 5.55383C4.85555 5.62311 4.93251 5.656 4.99601 5.656L4.99801 5.656C5.06368 5.656 5.1404 5.62304 5.20918 5.55427C5.2092 5.55426 5.20921 5.55424 5.20923 5.55422L9.66282 1.08464C9.77893 0.96798 9.77837 0.779034 9.66334 0.663883C9.6633 0.663847 9.66326 0.663812 9.66323 0.663777L9.3355 0.337047L9.33523 0.336777C9.2793 0.280852 9.20497 0.25 9.12501 0.25C9.04553 0.25 8.97205 0.280508 8.91578 0.336777L5.17478 4.07778L4.99798 4.25458L4.82121 4.07775L1.08523 0.340777C1.08522 0.340769 1.08521 0.340762 1.08521 0.340754C1.02911 0.284673 0.955719 0.254001 0.875006 0.254001C0.794376 0.254001 0.721051 0.284609 0.664982 0.340578C0.664915 0.340645 0.664849 0.340711 0.664783 0.340777L0.337319 0.67024Z"
              fill="#028ECE" stroke="black" stroke-width="0.5"/>
    </g>
    <g id="search">
        <path d="M8.448 0C3.79 0 0 3.79 0 8.448C0 13.106 3.79 16.896 8.448 16.896C13.106 16.896 16.896 13.106 16.896 8.448C16.896 3.79 13.1067 0 8.448 0ZM8.448 15.4187C4.60467 15.4187 1.47733 12.292 1.47733 8.448C1.47733 4.604 4.60467 1.478 8.448 1.478C12.2913 1.478 15.4187 4.60467 15.4187 8.44867C15.4187 12.2927 12.292 15.4187 8.448 15.4187ZM19.7833 18.7387L14.414 13.3693C14.1253 13.0807 13.658 13.0807 13.3693 13.3693C13.0807 13.658 13.0807 14.126 13.3693 14.414L18.7387 19.7833C18.8833 19.928 19.072 20 19.2613 20C19.4507 20 19.6393 19.928 19.784 19.7833C20.072 19.4953 20.072 19.0273 19.7833 18.7387Z"
              fill="#0F80C4"/>
    </g>
    <g id="phone">
        <path d="M3.23008 10.6357C4.8082 12.5222 6.70791 14.0075 8.87617 15.0584C9.7017 15.4496 10.8057 15.9138 12.0357 15.9934C12.112 15.9967 12.1849 16 12.2612 16C13.0867 16 13.7498 15.7149 14.2902 15.1281C14.2935 15.1247 14.3001 15.1181 14.3034 15.1115C14.4957 14.8794 14.7145 14.6705 14.9433 14.4484C15.0991 14.2992 15.2583 14.1434 15.4108 13.9843C16.1169 13.2482 16.1169 12.3133 15.4041 11.6005L13.4116 9.60796C13.0734 9.25653 12.669 9.07087 12.2446 9.07087C11.8202 9.07087 11.4124 9.25653 11.0643 9.60464L9.87741 10.7915C9.768 10.7286 9.65528 10.6722 9.54919 10.6191C9.41657 10.5528 9.2939 10.4898 9.1845 10.4202C8.10369 9.73394 7.12233 8.83879 6.18408 7.68835C5.70998 7.08827 5.39171 6.58433 5.16958 6.07045C5.48122 5.78864 5.77298 5.49358 6.05478 5.20514C6.15424 5.10236 6.25702 4.99959 6.3598 4.89681C6.71786 4.53875 6.91015 4.12433 6.91015 3.70327C6.91015 3.28222 6.72117 2.8678 6.3598 2.50974L5.37182 1.52176C5.25578 1.40572 5.14637 1.293 5.03365 1.17696C4.81483 0.951513 4.58607 0.719436 4.36063 0.510568C4.01914 0.175715 3.61798 0 3.19361 0C2.77256 0 2.36809 0.175715 2.01334 0.513883L0.773391 1.75383C0.3225 2.20472 0.0672156 2.75176 0.0141696 3.385C-0.0488225 4.17737 0.097054 5.01948 0.475007 6.0373C1.0552 7.6121 1.93046 9.07418 3.23008 10.6357ZM0.823121 3.45462C0.862906 3.01368 1.03199 2.64567 1.35027 2.32739L2.58359 1.09407C2.77588 0.908413 2.98806 0.812267 3.19361 0.812267C3.39585 0.812267 3.60141 0.908413 3.79038 1.1007C4.01251 1.30626 4.22138 1.52176 4.44683 1.75052C4.55955 1.86656 4.67559 1.98259 4.79163 2.10195L5.77961 3.08993C5.98516 3.29548 6.09125 3.50435 6.09125 3.7099C6.09125 3.91546 5.98516 4.12433 5.77961 4.32988C5.67683 4.43266 5.57405 4.53875 5.47128 4.64152C5.16295 4.95317 4.87451 5.24824 4.55623 5.53005C4.5496 5.53668 4.54629 5.53999 4.53966 5.54662C4.26448 5.8218 4.30758 6.08371 4.37389 6.28264C4.3772 6.29258 4.38052 6.29921 4.38383 6.30916C4.63912 6.9225 4.99386 7.50601 5.54753 8.20224C6.54214 9.42893 7.5898 10.3804 8.74355 11.1131C8.88611 11.206 9.03862 11.2789 9.18118 11.3518C9.3138 11.4182 9.43647 11.4811 9.54587 11.5508C9.55913 11.5574 9.56908 11.564 9.58234 11.5707C9.69175 11.627 9.79784 11.6535 9.90393 11.6535C10.1692 11.6535 10.3416 11.4845 10.3979 11.4281L11.6379 10.1881C11.8302 9.99586 12.039 9.89308 12.2446 9.89308C12.4966 9.89308 12.7021 10.0489 12.8314 10.1881L14.8306 12.184C15.2284 12.5818 15.2251 13.0128 14.8206 13.4339C14.6814 13.5831 14.5355 13.7257 14.3797 13.8748C14.1476 14.1003 13.9056 14.3324 13.6868 14.5943C13.3055 15.0054 12.8513 15.1977 12.2645 15.1977C12.2081 15.1977 12.1484 15.1944 12.0921 15.191C11.0046 15.1214 9.99345 14.6971 9.23423 14.3357C7.17206 13.3378 5.36187 11.9221 3.86001 10.1252C2.62337 8.63655 1.79121 7.25072 1.24086 5.76544C0.899375 4.85371 0.770075 4.12101 0.823121 3.45462Z"
              fill="white"/>
    </g>
    <g id="vk">
        <rect width="40" height="40" rx="20" fill="#0077FF"/>
        <path d="M20.9825 27C13.466 27 9.17864 21.7447 9 13H12.7651C12.8888 19.4184 15.6646 22.1371 17.8632 22.6977V13H21.4085V18.5355C23.5796 18.2973 25.8607 15.7748 26.6302 13H30.1755C29.8855 14.4391 29.3075 15.8017 28.4776 17.0025C27.6477 18.2033 26.5837 19.2166 25.3523 19.979C26.7269 20.6756 27.941 21.6615 28.9145 22.8717C29.888 24.082 30.5988 25.489 31 27H27.0974C26.7373 25.6876 26.0054 24.5128 24.9934 23.6228C23.9814 22.7328 22.7343 22.1673 21.4085 21.997V27H20.9825Z"
              fill="white"/>
    </g>
    <g id="ok">
        <rect width="40" height="40" rx="20" fill="#F79A38"/>
        <path d="M26.2376 22.7928C26.7624 22.2681 26.8373 21.5185 26.3876 20.7689C26.0128 20.1692 25.3381 19.8694 24.5885 20.0193C24.2887 20.0942 23.9888 20.2442 23.689 20.469C21.3652 22.0432 18.2168 21.9683 15.893 20.3941C15.7431 20.3191 15.5932 20.2442 15.4433 20.1692C14.6187 19.7944 13.7941 19.9443 13.3444 20.6939C12.8196 21.4435 12.8946 22.2681 13.5692 22.9428C13.7192 23.0927 13.8691 23.1676 13.944 23.3176L14.019 23.3925C15.0685 24.2171 16.3428 24.7418 17.9919 24.9667L17.0174 25.9412C16.1929 26.7658 15.2933 27.6653 14.4688 28.4899C14.2439 28.7148 13.944 29.0896 13.944 29.6143C13.944 30.2889 14.3188 30.9636 14.9935 31.2634C15.2184 31.4133 15.4433 31.4133 15.6681 31.4133C16.0429 31.4133 16.4927 31.2634 16.7926 30.8886C17.917 29.7642 18.8165 28.8647 19.716 27.9651C19.791 27.8902 19.791 27.8902 19.791 27.8902C19.791 27.8902 19.866 27.8902 19.866 27.9651C20.4656 28.6398 21.1403 29.2395 21.74 29.9141C22.0398 30.214 22.3397 30.5138 22.6395 30.8137C23.0143 31.1885 23.3142 31.3384 23.7639 31.3384C24.4386 31.4134 25.1882 30.9636 25.488 30.2889C25.7879 29.6892 25.638 28.9396 25.1132 28.4899C24.3636 27.7403 23.614 26.9157 22.7894 26.1661L21.5151 24.8917C22.1898 24.8168 22.9394 24.6669 23.614 24.367C24.7384 23.9922 25.563 23.4675 26.2376 22.7928Z"
              fill="white"/>
        <path d="M19.791 20.6939C23.0143 20.6939 25.638 18.1452 25.638 14.9219C25.638 13.3477 25.0383 11.8485 23.9138 10.7241C22.7894 9.59969 21.3652 9 19.866 9C16.6426 9 14.094 11.6236 14.019 14.772C14.019 16.3462 14.6187 17.7704 15.7431 18.8948C16.7926 20.0942 18.2168 20.6939 19.791 20.6939ZM18.1419 13.1978C18.5916 12.7481 19.1913 12.5232 19.791 12.5232C21.1403 12.5232 22.1148 13.5726 22.1148 14.847C22.1148 16.1963 21.0653 17.1707 19.791 17.1707C18.4417 17.1707 17.4672 16.1213 17.4672 14.847C17.4672 14.2473 17.6921 13.6476 18.1419 13.1978Z"
              fill="white"/>
        <path d="M26.2376 22.7928C26.7624 22.2681 26.8373 21.5185 26.3876 20.7689C26.0128 20.1692 25.3381 19.8694 24.5885 20.0193C24.2887 20.0942 23.9888 20.2442 23.689 20.469C21.3652 22.0432 18.2168 21.9683 15.893 20.3941C15.7431 20.3191 15.5932 20.2442 15.4433 20.1692C14.6187 19.7944 13.7941 19.9443 13.3444 20.6939C12.8196 21.4435 12.8946 22.2681 13.5692 22.9428C13.7192 23.0927 13.8691 23.1676 13.944 23.3176L14.019 23.3925C15.0685 24.2171 16.3428 24.7418 17.9919 24.9667L17.0174 25.9412C16.1929 26.7658 15.2933 27.6653 14.4688 28.4899C14.2439 28.7148 13.944 29.0896 13.944 29.6143C13.944 30.2889 14.3188 30.9636 14.9935 31.2634C15.2184 31.4133 15.4433 31.4133 15.6681 31.4133C16.0429 31.4133 16.4927 31.2634 16.7926 30.8886C17.917 29.7642 18.8165 28.8647 19.716 27.9651C19.791 27.8902 19.791 27.8902 19.791 27.8902C19.791 27.8902 19.866 27.8902 19.866 27.9651C20.4656 28.6398 21.1403 29.2395 21.74 29.9141C22.0398 30.214 22.3397 30.5138 22.6395 30.8137C23.0143 31.1885 23.3142 31.3384 23.7639 31.3384C24.4386 31.4134 25.1882 30.9636 25.488 30.2889C25.7879 29.6892 25.638 28.9396 25.1132 28.4899C24.3636 27.7403 23.614 26.9157 22.7894 26.1661L21.5151 24.8917C22.1898 24.8168 22.9394 24.6669 23.614 24.367C24.7384 23.9922 25.563 23.4675 26.2376 22.7928Z"
              fill="white"/>
    </g>
    <g id="whatsapp">
        <g clip-path="url(#clip0_7_26)">
            <path d="M15.3401 2.61394C13.6476 0.92932 11.396 0.000949219 8.99958 0C6.60859 0 4.3534 0.927527 2.64971 2.61172C0.942988 4.2988 0.00221697 6.54086 0 8.91664V8.91939V8.92104C0.000281521 10.359 0.378434 11.8096 1.09624 13.1337L0.0245979 18L4.95163 16.8803C6.1995 17.5086 7.59183 17.8399 8.99616 17.8404H8.99975C11.3904 17.8404 13.6455 16.9128 15.3495 15.2284C17.0577 13.54 17.9989 11.3008 18 8.9235C18.0007 6.56297 17.0562 4.32214 15.3401 2.61394ZM8.99958 16.4355H8.99641C7.73548 16.435 6.48609 16.1187 5.38352 15.5207L5.15052 15.3943L1.87426 16.1388L2.58591 12.9077L2.44874 12.6714C1.76665 11.4962 1.40623 10.199 1.40623 8.91953C1.40883 4.77809 4.81485 1.40488 8.9993 1.40488C11.0208 1.40569 12.9202 2.18862 14.3476 3.60914C15.7966 5.05164 16.5943 6.93882 16.5936 8.92308C16.592 13.0655 13.1853 16.4355 8.99958 16.4355Z"
                  fill="#40AC69"/>
            <path d="M6.55072 4.98755H6.1562C6.01889 4.98755 5.79593 5.03891 5.60731 5.24394C5.41858 5.44911 4.88672 5.94499 4.88672 6.95355C4.88672 7.96212 5.62448 8.93658 5.7273 9.07351C5.83027 9.2103 7.15141 11.346 9.24385 12.1677C10.9829 12.8505 11.3369 12.7147 11.7142 12.6805C12.0916 12.6464 12.9322 12.1847 13.1037 11.7061C13.2753 11.2275 13.2753 10.8172 13.2239 10.7315C13.1723 10.646 13.035 10.5948 12.8292 10.4924C12.6233 10.3898 11.6144 9.88551 11.4256 9.81699C11.2369 9.74875 11.0997 9.71455 10.9624 9.91986C10.825 10.1248 10.4207 10.5988 10.3006 10.7356C10.1806 10.8725 10.0605 10.8897 9.85454 10.7871C9.64861 10.6842 8.99238 10.464 8.20595 9.76577C7.59382 9.22236 7.16908 8.5294 7.04894 8.32422C6.92894 8.11919 7.03617 8.00824 7.13938 7.90594C7.23189 7.81421 7.35685 7.68867 7.45978 7.56907C7.56261 7.44933 7.59189 7.3639 7.66061 7.2271C7.7292 7.09031 7.69485 6.97057 7.64344 6.86812C7.59189 6.76554 7.19684 5.75192 7.01371 5.34653H7.01385C6.85976 5.00513 6.69739 4.9936 6.55072 4.98755Z"
                  fill="#40AC69"/>
        </g>
        <defs>
            <clipPath id="clip0_7_26">
                <rect width="18" height="18" fill="white"/>
            </clipPath>
        </defs>
    </g>
    <g id="telegram">
        <path fill-rule="evenodd" clip-rule="evenodd"
              d="M18.2548 0.0510812C18.1365 0.0820805 17.8813 0.170045 17.6877 0.246505C17.4941 0.322965 13.6577 1.8087 9.16231 3.5481C4.66692 5.2875 0.910506 6.74578 0.814693 6.78877C0.0160429 7.1469 -0.240501 7.90107 0.247637 8.45566C0.339226 8.55969 0.499449 8.69195 0.603748 8.74952C0.708008 8.80712 1.64686 9.1724 2.69005 9.56125C3.73323 9.95014 4.60767 10.2888 4.63321 10.3139C4.65875 10.339 5.11231 11.3752 5.64108 12.6166C6.16986 13.858 6.64168 14.9629 6.68963 15.0719C6.79823 15.3191 7.14953 15.6895 7.38429 15.8043C7.80122 16.0084 8.25314 15.9967 8.70354 15.7702C8.96517 15.6386 9.06869 15.5485 10.0929 14.561C10.4541 14.2127 10.7709 13.9362 10.7968 13.9465C10.8227 13.9568 11.7326 14.5906 12.8188 15.3548C13.9051 16.1191 14.8854 16.7873 14.9973 16.8398C15.8079 17.2197 16.6437 16.907 17.0231 16.0819C17.1414 15.8246 17.3138 15.0156 18.5742 8.80161C20.1226 1.16806 20.0886 1.36787 19.923 0.881193C19.6969 0.216824 18.9812 -0.139309 18.2548 0.0510812ZM18.7944 1.23952C18.8203 1.26589 18.8414 1.34359 18.8414 1.41218C18.8414 1.48077 18.5503 2.97369 18.1944 4.72983C17.8386 6.48592 17.2043 9.61946 16.7849 11.6932C16.3654 13.7669 15.9962 15.5149 15.9645 15.5777C15.8692 15.766 15.7361 15.8325 15.5644 15.7779C15.4847 15.7525 14.6276 15.174 13.6597 14.4923C12.6917 13.8105 11.1748 12.7456 10.2888 12.1257C9.4027 11.5059 8.68117 10.9875 8.68539 10.9738C8.68958 10.9601 10.0041 9.72204 11.6065 8.22261C14.9552 5.08916 15.0715 4.97598 15.1299 4.79546C15.2519 4.41776 14.9101 3.9912 14.5233 4.03853C14.4213 4.051 14.1021 4.2022 13.6401 4.45691C12.8811 4.87524 7.5424 7.8 5.99047 8.64761C5.49345 8.91905 5.06132 9.14116 5.03015 9.14116C4.99894 9.14116 4.76324 9.06227 4.50635 8.96583C4.24945 8.86936 3.4761 8.57958 2.78781 8.32184C2.09953 8.06406 1.52406 7.84187 1.509 7.82804C1.49395 7.81422 4.84642 6.50075 8.95895 4.90919C13.0715 3.3176 16.887 1.84085 17.4378 1.62749C18.6668 1.15144 18.6992 1.14221 18.7944 1.23952ZM10.6274 7.51713C10.5959 7.54669 9.83104 8.26256 8.92766 9.10793C8.02429 9.9533 7.2588 10.6778 7.22657 10.718C7.18008 10.776 7.16205 10.9901 7.13933 11.7538C7.12357 12.2833 7.10593 12.7818 7.10014 12.8616C7.09118 12.985 6.99608 12.7877 6.46594 11.546C6.12289 10.7426 5.85891 10.0785 5.87933 10.0704C5.8997 10.0623 6.9723 9.47377 8.26284 8.76262C9.55338 8.05147 10.6263 7.46824 10.647 7.46648C10.6677 7.46476 10.6589 7.48757 10.6274 7.51713ZM9.04346 12.6999C9.42046 12.9655 9.73648 13.1953 9.74579 13.2107C9.76171 13.237 8.38806 14.5788 8.31603 14.6073C8.29753 14.6147 8.28239 14.0798 8.28239 13.4189C8.28239 12.6717 8.29671 12.2171 8.32021 12.2171C8.34102 12.2171 8.66647 12.4344 9.04346 12.6999Z"
              fill="#25A8E3"/>
    </g>
    <g id="arrow-bottom">
        <path d="M0.160006 0.494001L0.488006 0.164001C0.591005 0.0610008 0.728005 0.00400081 0.875006 0.0040008C1.02201 0.00400079 1.15901 0.0610008 1.26201 0.164001L4.99801 3.901L8.73901 0.16C8.84201 0.0570001 8.97901 8.92368e-08 9.12501 7.64731e-08C9.27101 6.37093e-08 9.40901 0.057 9.51201 0.16L9.84001 0.487C10.053 0.7 10.053 1.047 9.84001 1.261L5.38601 5.731C5.28301 5.834 5.14601 5.906 4.99801 5.906L4.99601 5.906C4.84901 5.906 4.71201 5.833 4.60901 5.731L0.159006 1.273C0.057006 1.17 5.812e-06 1.029 5.79915e-06 0.882001C5.78639e-06 0.736001 0.0570059 0.597001 0.160006 0.494001Z"
              fill="#028ECE"/>
    </g>
    <g id="services1">
        <path d="M15.8203 27.9958C10.974 27.9958 7.03125 31.9386 7.03125 36.7849C7.03125 41.6312 10.974 45.574 15.8203 45.574C20.6666 45.574 24.6094 41.6312 24.6094 36.7849C24.6094 31.9386 20.6666 27.9958 15.8203 27.9958ZM15.8203 43.8162C11.9433 43.8162 8.78906 40.6619 8.78906 36.7849C8.78906 32.9079 11.9433 29.7537 15.8203 29.7537C19.6973 29.7537 22.8516 32.9079 22.8516 36.7849C22.8516 40.6619 19.6973 43.8162 15.8203 43.8162Z"
              fill="white"/>
        <path d="M57.3633 31.5116H55.2962C53.4374 27.6084 49.5817 24.8322 45.0587 24.5114V23.6013C45.0587 22.1475 43.8759 20.9646 42.422 20.9646H36.2696C34.8157 20.9646 33.6329 22.1474 33.6329 23.6013V30.445C33.2289 31.1161 32.8934 31.8215 32.6262 32.5509H30.8789V13.1512C32.7305 12.8851 34.3186 11.7924 35.2547 10.2593H38.9064V8.50145H35.9808C36.0919 8.03962 36.1523 7.55821 36.1523 7.06263C36.1523 6.33407 36.0243 5.63493 35.7907 4.98583H46.8164V8.50145H44.1797V10.2593H56.4844C58.4229 10.2593 60 8.68216 60 6.74364C60 4.80513 58.4229 3.22802 56.4844 3.22802H34.8059C33.6776 1.81685 31.9432 0.9104 30 0.9104C28.0568 0.9104 26.3224 1.81685 25.1941 3.22813H3.51562C1.57711 3.22813 0 4.80524 0 6.74376C0 8.68227 1.57711 10.2594 3.51562 10.2594H24.7453C25.6814 11.7925 27.2695 12.8852 29.1211 13.1513V32.5511H27.3739C27.1066 31.8218 26.7712 31.1163 26.3672 30.4453V23.6015C26.3672 22.1477 25.1844 20.9648 23.7305 20.9648H17.5781C16.1243 20.9648 14.9414 22.1476 14.9414 23.6015V24.5116C10.4184 24.8325 6.56262 27.6086 4.70379 31.5118H2.63672C1.18277 31.5118 0 32.6946 0 34.1485V39.422C0 40.8758 1.18277 42.0587 2.63672 42.0587H4.70379C6.68203 46.2125 10.9213 49.0899 15.8203 49.0899C20.5165 49.0899 24.6061 46.445 26.6793 42.5669C27.6175 43.3072 28.7747 43.717 30 43.717C31.2253 43.717 32.3827 43.3072 33.3207 42.5669C35.3939 46.445 39.4834 49.0899 44.1797 49.0899C49.0786 49.0899 53.3178 46.2125 55.2961 42.0587H57.3633C58.8172 42.0587 60 40.8759 60 39.422V34.1485C60 32.6945 58.8172 31.5116 57.3633 31.5116ZM48.5742 4.98583H50.332V8.50145H48.5742V4.98583ZM58.2422 6.74364C58.2422 7.7129 57.4536 8.50145 56.4844 8.50145H52.0898V4.98583H56.4844C57.4536 4.98583 58.2422 5.77438 58.2422 6.74364ZM11.4258 4.98583V8.50145H9.66797V4.98583H11.4258ZM1.75781 6.74364C1.75781 5.77438 2.54637 4.98583 3.51562 4.98583H7.91016V8.50145H3.51562C2.54637 8.50145 1.75781 7.7129 1.75781 6.74364ZM13.1836 8.50145V4.98583H24.2093C23.9757 5.63505 23.8477 6.33407 23.8477 7.06263C23.8477 7.5581 23.9081 8.0395 24.0192 8.50145H13.1836ZM25.6055 7.06274C25.6055 4.63954 27.5768 2.66821 30 2.66821C32.4232 2.66821 34.3945 4.63954 34.3945 7.06274C34.3945 9.48595 32.4232 11.4573 30 11.4573C27.5768 11.4573 25.6055 9.48583 25.6055 7.06274ZM4.02727 40.3006H2.63672C2.15215 40.3006 1.75781 39.9064 1.75781 39.4217V34.1483C1.75781 33.6637 2.15215 33.2694 2.63672 33.2694H4.02727C3.69445 34.3838 3.51562 35.5638 3.51562 36.785C3.51562 38.0062 3.69434 39.1863 4.02727 40.3006ZM35.3906 23.6014C35.3906 23.1168 35.785 22.7225 36.2695 22.7225H42.4219C42.9066 22.7225 43.3008 23.1167 43.3008 23.6014V24.4803H35.3906V23.6014ZM32.1257 34.3088C32.0181 34.8342 31.9452 35.3677 31.9069 35.9061H28.0931C28.0548 35.3676 27.9819 34.8342 27.8743 34.3088H32.1257ZM15.8203 47.3319C10.0048 47.3319 5.27344 42.6006 5.27344 36.785C5.27344 30.9695 10.0048 26.2381 15.8203 26.2381H19.3359V24.4803H16.6992V23.6014C16.6992 23.1168 17.0934 22.7225 17.5781 22.7225H23.7305C24.215 22.7225 24.6094 23.1167 24.6094 23.6014V24.4803H21.0938V26.2381H24.6094V30.9485L24.7451 31.1634C25.8062 32.8443 26.3671 34.7882 26.3671 36.7849C26.3672 42.6006 21.6359 47.3319 15.8203 47.3319ZM30 41.959C29.021 41.959 28.1051 41.5698 27.4239 40.879C27.7839 39.8615 28.0139 38.7833 28.0932 37.6639H31.9068C31.9861 38.7833 32.2161 39.8615 32.5761 40.879C31.8949 41.5699 30.979 41.959 30 41.959ZM44.1797 47.3319C38.3641 47.3319 33.6328 42.6006 33.6328 36.785C33.6328 34.7883 34.1938 32.8445 35.2548 31.1635L35.3905 30.9486V26.2383H44.1796C49.9951 26.2383 54.7264 30.9696 54.7264 36.7851C54.7264 42.6007 49.9952 47.3319 44.1797 47.3319ZM58.2422 39.4218C58.2422 39.9064 57.8479 40.3008 57.3633 40.3008H55.9727C56.3055 39.1863 56.4844 38.0063 56.4844 36.7851C56.4844 35.5639 56.3057 34.384 55.9727 33.2695H57.3633C57.8479 33.2695 58.2422 33.6638 58.2422 34.1484V39.4218Z"
              fill="white"/>
        <path d="M44.1797 27.9958C39.3334 27.9958 35.3906 31.9386 35.3906 36.7849C35.3906 41.6312 39.3334 45.574 44.1797 45.574C49.026 45.574 52.9688 41.6312 52.9688 36.7849C52.9688 31.9386 49.026 27.9958 44.1797 27.9958ZM44.1797 43.8162C40.3027 43.8162 37.1484 40.6619 37.1484 36.7849C37.1484 32.9079 40.3027 29.7537 44.1797 29.7537C48.0567 29.7537 51.2109 32.9079 51.2109 36.7849C51.2109 40.6619 48.0567 43.8162 44.1797 43.8162Z"
              fill="white"/>
        <path d="M40.6642 8.50146H42.422V10.2593H40.6642V8.50146Z" fill="white"/>
        <path d="M29.1211 5.86475H30.8789V7.62256H29.1211V5.86475Z" fill="white"/>
        <path d="M46.8164 33.4038H48.5742V35.1616H46.8164V33.4038Z" fill="white"/>
        <path d="M43.3008 31.646H45.0586V33.4038H43.3008V31.646Z" fill="white"/>
    </g>
    <g id="services2">
        <path d="M30.7718 5.74676C24.6182 4.44188 18.1081 4.26049 11.4225 5.20766C9.9905 5.4106 8.73497 6.16628 7.88699 7.33592C7.0429 8.50001 6.71617 9.92026 6.96694 11.3348C7.08113 11.9785 7.1938 12.5802 7.30175 13.123C7.78982 15.5761 8.31932 17.7876 8.87559 19.6961C9.72457 22.6087 12.0687 24.788 14.9955 25.3838L15.1971 25.4244C16.3019 25.642 17.4287 25.7523 18.5462 25.7523C25.9987 25.7523 32.6208 20.9838 35.0244 13.8864L35.1705 13.4548C35.7126 11.8518 35.543 10.0895 34.7055 8.61942C33.8664 7.14578 32.4324 6.09875 30.7718 5.74676ZM33.5724 12.9243L33.4295 13.346C31.2577 19.7591 25.2766 24.068 18.5463 24.068C17.5379 24.068 16.5206 23.9683 15.526 23.7724L15.3296 23.733C13.0195 23.2628 11.1659 21.5352 10.4925 19.2247C9.94991 17.363 9.4322 15.1996 8.95357 12.7943C8.8478 12.2629 8.73732 11.673 8.62533 11.0409C8.45506 10.0801 8.67703 9.1154 9.25048 8.32452C9.82781 7.52809 10.6832 7.01358 11.6587 6.87531C18.1487 5.95593 24.4618 6.13057 30.4223 7.39436C31.6129 7.64682 32.6407 8.39728 33.2424 9.45307C33.8422 10.5055 33.9636 11.7674 33.5724 12.9243Z"
              fill="white"/>
        <path d="M30.2406 8.25197C26.8716 7.53756 23.3318 7.17529 19.7198 7.17529C18.7624 7.17529 17.7826 7.20157 16.8076 7.25327C16.3433 7.27786 15.9867 7.67431 16.0113 8.1388C16.0359 8.60329 16.4335 8.95898 16.8969 8.93507C17.8422 8.88488 18.7919 8.85945 19.7198 8.85945C23.2146 8.85945 26.6367 9.20941 29.8913 9.89941C30.3743 10.0018 30.7743 10.2935 31.0178 10.7208C31.2593 11.1447 31.3062 11.6327 31.1499 12.095C31.0008 12.5356 31.2373 13.0136 31.6778 13.1625C31.7673 13.1928 31.8582 13.2071 31.9476 13.2071C32.2988 13.2071 32.6265 12.9856 32.7453 12.6345C33.0578 11.7102 32.964 10.7346 32.4812 9.88695C31.9962 9.03612 31.2004 8.45542 30.2406 8.25197Z"
              fill="white"/>
        <path d="M72.698 13.123C72.8058 12.5807 72.9185 11.9791 73.0327 11.3347C73.2835 9.92021 72.9567 8.49996 72.1128 7.33605C71.2648 6.1664 70.0091 5.41055 68.5771 5.20778C61.8915 4.26078 55.3814 4.44217 49.228 5.74688C47.5674 6.09887 46.1334 7.14591 45.294 8.61937C44.4564 10.0895 44.287 11.8518 44.8288 13.4544L44.975 13.8864C47.3785 20.9838 54.0007 25.7523 61.4533 25.7523C62.5707 25.7523 63.6974 25.642 64.8054 25.4237L65.0058 25.3834C67.9305 24.7881 70.2749 22.6088 71.1237 19.6962C71.68 17.7889 72.2096 15.5775 72.698 13.123ZM69.5072 19.2248C68.8338 21.5353 66.9803 23.2627 64.6722 23.7326L64.4768 23.7719C63.4791 23.9684 62.4619 24.0681 61.4534 24.0681C54.7232 24.0681 48.7421 19.7594 46.5702 13.3461L46.4246 12.9151C46.0364 11.7674 46.1578 10.5055 46.7575 9.45286C47.3591 8.39689 48.3871 7.6466 49.5776 7.39415C53.0317 6.66188 56.6032 6.29524 60.2597 6.29524C62.9133 6.29524 65.612 6.48841 68.3411 6.87509C69.3168 7.01336 70.1721 7.52804 70.7495 8.32431C71.3229 9.11519 71.5451 10.0799 71.3748 11.0403C71.2625 11.6731 71.152 12.2632 71.0464 12.7939C70.5674 15.2009 70.0495 17.3643 69.5072 19.2248Z"
              fill="white"/>
        <path d="M68.2181 7.74319C65.5577 7.36645 62.887 7.17529 60.2799 7.17529C59.2699 7.17529 58.252 7.20409 57.2545 7.26085C56.7901 7.28729 56.4353 7.68509 56.4616 8.14941C56.488 8.61373 56.8851 8.96976 57.3501 8.94231C58.3158 8.88741 59.3016 8.85945 60.2799 8.85945C62.8081 8.85945 65.3994 9.04488 67.9818 9.41067C68.2636 9.45059 68.5102 9.59863 68.6762 9.82767C68.8406 10.0544 68.9017 10.3193 68.8532 10.5938C68.7721 11.0517 69.0774 11.4888 69.5355 11.5699C69.5852 11.5787 69.6345 11.5831 69.6833 11.5831C70.084 11.5831 70.4392 11.2959 70.5114 10.8878C70.6399 10.1633 70.4724 9.43577 70.0397 8.83924C69.6032 8.23682 68.9563 7.84761 68.2181 7.74319Z"
              fill="white"/>
        <path d="M79.8033 29.1232L73.269 21.328C73.3858 21.0294 73.4913 20.7245 73.5822 20.4126C74.8822 15.953 75.7186 10.9805 76.0037 9.15102H77.6688C78.134 9.15102 78.5109 8.77394 78.5109 8.30894V4.21207C78.5109 3.83886 78.2652 3.51012 77.9071 3.40435C62.2665 -1.20956 50.2085 1.29242 44.4133 3.19484C41.5262 4.14252 38.474 4.14269 35.5865 3.19484C29.7913 1.29259 17.734 -1.20973 2.09272 3.40435C1.73467 3.50995 1.48895 3.83886 1.48895 4.21207V8.30894C1.48895 8.77394 1.86603 9.15102 2.33103 9.15102H3.99615C4.28128 10.9805 5.1178 15.953 6.41763 20.4128C6.50857 20.7247 6.614 21.0295 6.73088 21.3281L0.196697 29.1232C0.0385554 29.312 -0.0291476 29.5606 0.0116089 29.8036C0.0525339 30.0465 0.19754 30.2595 0.408901 30.3862C1.33754 30.9435 2.36286 31.2146 3.37908 31.2146C4.90492 31.2146 6.40971 30.6024 7.53321 29.4271L10.5952 26.2231C11.7685 27.035 13.113 27.6166 14.5662 27.9091L14.7025 27.9362C15.9789 28.1878 17.2543 28.3093 18.5166 28.3091C25.8681 28.3088 32.73 24.1855 36.1921 17.6321L43.3245 16.6442C46.5983 23.768 53.7696 28.3094 61.4836 28.3091C62.745 28.3091 64.0216 28.1877 65.2975 27.9362L65.4159 27.9127C66.8759 27.6194 68.2259 27.0362 69.4036 26.2214L72.467 29.4269C73.5905 30.6024 75.0951 31.2144 76.6211 31.2144C77.6371 31.2144 78.6626 30.943 79.5913 30.386C79.8026 30.2592 79.9476 30.0463 79.9884 29.8035C80.0291 29.5606 79.9614 29.312 79.8033 29.1232ZM6.31557 28.2636C5.23063 29.3988 3.64349 29.7912 2.20118 29.3536L7.545 22.9786C8.03105 23.7814 8.6173 24.5118 9.28726 25.154L6.31557 28.2636ZM37.0339 15.8154C37.1816 15.4516 37.3227 15.0836 37.45 14.7077C37.8823 13.4311 38.264 12.2977 38.5501 11.445C38.7593 10.8217 39.342 10.4029 39.9998 10.4029C40.6577 10.4029 41.2404 10.8217 41.4496 11.445C41.7357 12.2975 42.1173 13.431 42.5496 14.7075C42.587 14.8179 42.6288 14.9256 42.6679 15.0349L37.0339 15.8154ZM65.0851 26.2615L64.972 26.2839C56.0345 28.0455 47.081 22.8363 44.1449 14.1674C43.7132 12.8925 43.3323 11.7604 43.0465 10.9091C42.6066 9.59901 41.3824 8.71887 40 8.71887C38.6176 8.71887 37.3933 9.59917 36.9537 10.9091C36.6679 11.7604 36.2868 12.8925 35.855 14.1674C32.919 22.8365 23.965 28.0454 15.0279 26.2839L14.8989 26.2581C11.6073 25.5956 8.9772 23.1753 8.03458 19.9416C6.44794 14.4984 5.56359 8.25471 5.55483 8.19223C5.49656 7.77641 5.14087 7.46687 4.72084 7.46687H3.1731V4.84464C18.0811 0.599224 29.5269 2.97809 35.0612 4.79496C38.2923 5.8558 41.7079 5.85547 44.9386 4.79496C50.4729 2.97843 61.9194 0.599561 76.8267 4.84464V7.46687H75.279C74.8591 7.46687 74.5033 7.77625 74.445 8.19223C74.4362 8.25471 73.5532 14.4942 71.9656 19.9414C71.0223 23.177 68.3856 25.5988 65.0851 26.2615ZM73.6844 28.2636L70.7116 25.1528C71.3817 24.5107 71.9683 23.7806 72.4545 22.9781L77.7988 29.3538C76.3567 29.7913 74.7692 29.3988 73.6844 28.2636Z"
              fill="white"/>
    </g>
    <g id="apple">
        <path fill-rule="evenodd" clip-rule="evenodd"
              d="M4.23271 0.0518694C4.0348 0.124433 3.87159 0.271217 3.81672 0.426013C3.79403 0.490002 3.77538 0.685256 3.77526 0.859859L3.77502 1.1773L2.98617 1.19126C2.10322 1.20684 1.87303 1.24495 1.37852 1.45732C0.980217 1.62839 0.510663 2.01636 0.305882 2.34363C-0.0264731 2.87479 0.000527477 2.32151 0.000527477 8.59974C0.000527477 14.8665 -0.0252349 14.3266 0.298293 14.8438C0.595778 15.3195 1.17254 15.7126 1.8531 15.9035L2.19732 16H9.84615H17.495L17.8145 15.9119C18.7119 15.6644 19.3744 15.106 19.6217 14.3885C19.6873 14.1982 19.6918 13.8272 19.6918 8.59974C19.6918 2.31973 19.719 2.87517 19.3852 2.3416C19.1505 1.96652 18.6749 1.595 18.194 1.41117C17.7256 1.23212 17.3823 1.18384 16.578 1.18384H15.9173L15.917 0.863113C15.9168 0.482148 15.874 0.342529 15.7135 0.199374C15.3672 -0.109622 14.7067 -0.0444122 14.4808 0.321064C14.4132 0.430362 14.3995 0.514472 14.3995 0.818242V1.18384H9.84615H5.2928V0.818242C5.2928 0.514472 5.27906 0.430362 5.21152 0.321064C5.04169 0.0462371 4.58819 -0.0784877 4.23271 0.0518694ZM3.78213 2.74056C3.80018 3.16836 3.86105 3.30066 4.10282 3.43787C4.39359 3.6029 4.76365 3.58669 5.03965 3.39685C5.25386 3.2495 5.2928 3.14746 5.2928 2.73373V2.37289H9.84615H14.3995V2.73373C14.3995 3.14746 14.4384 3.2495 14.6527 3.39685C14.9286 3.58669 15.2987 3.6029 15.5895 3.43787C15.8347 3.29869 15.895 3.16783 15.9106 2.74056L15.924 2.37289H16.5582C17.0991 2.37289 17.2245 2.38231 17.4106 2.43685C17.6854 2.51739 17.9309 2.70197 18.0681 2.93127L18.174 3.10822V8.59974V14.0913L18.0696 14.2634C17.9446 14.4696 17.7291 14.6435 17.479 14.74L17.2953 14.811H9.84615H2.39703L2.2133 14.74C1.96318 14.6435 1.74774 14.4696 1.62268 14.2634L1.51831 14.0913V8.59974C1.51831 3.38314 1.52191 3.10196 1.59005 2.98306C1.70484 2.78283 1.85226 2.63442 2.02565 2.54452C2.31179 2.39617 2.43294 2.37746 3.12177 2.37508L3.76659 2.37289L3.78213 2.74056ZM5.06445 5.42392C4.45706 5.66467 4.36867 6.28495 4.89171 6.63569C5.68131 7.16516 6.81494 6.42904 6.30456 5.71821C6.13493 5.48197 5.89284 5.36644 5.5372 5.35205C5.31405 5.34301 5.24032 5.35421 5.06445 5.42392ZM9.267 5.40496C8.92997 5.52746 8.72778 5.78089 8.72778 6.08084C8.72778 6.38959 8.93125 6.63071 9.29519 6.75337C9.66162 6.87688 10.0522 6.81164 10.341 6.57871C10.9097 6.11995 10.4794 5.34376 9.65775 5.3462C9.51847 5.3466 9.36334 5.36995 9.267 5.40496ZM13.4101 5.41003C12.5668 5.74534 12.8057 6.74893 13.7433 6.80982C14.3384 6.8485 14.7966 6.48265 14.748 6.00784C14.7238 5.77178 14.5964 5.60532 14.326 5.4564C14.1811 5.37661 14.1108 5.36065 13.8678 5.35217C13.6353 5.3441 13.5482 5.35512 13.4101 5.41003ZM9.48668 8.31778C9.19482 8.36046 8.94882 8.50819 8.80699 8.72591C8.67925 8.9221 8.70406 9.25663 8.86003 9.44128C9.08478 9.70734 9.48995 9.83097 9.89468 9.75697C10.1726 9.70615 10.4837 9.46897 10.5628 9.24759C10.75 8.72397 10.1651 8.21865 9.48668 8.31778ZM13.6536 8.32232C13.4194 8.35468 13.2708 8.42186 13.1118 8.56739C12.6755 8.96675 12.8864 9.5665 13.5252 9.74308C14.122 9.90804 14.759 9.54832 14.759 9.04633C14.759 8.84397 14.6779 8.68166 14.5073 8.54233C14.2808 8.35727 13.9736 8.27814 13.6536 8.32232ZM5.06222 8.38434C4.6183 8.5565 4.41852 9.01848 4.63947 9.36183C4.8103 9.62733 5.10963 9.77083 5.49251 9.77083C5.93918 9.77083 6.26893 9.5753 6.39495 9.2357C6.45043 9.08616 6.45327 9.03215 6.41292 8.89094C6.35321 8.68191 6.1666 8.48644 5.93558 8.39091C5.69853 8.29291 5.3057 8.28993 5.06222 8.38434ZM5.21292 11.3059C4.98105 11.3644 4.75387 11.513 4.64538 11.6771C4.52001 11.8667 4.52452 12.168 4.65549 12.3536C4.78498 12.537 5.03917 12.6849 5.30502 12.7315C5.94972 12.8445 6.55719 12.3686 6.41292 11.8636C6.2919 11.4398 5.72541 11.1766 5.21292 11.3059ZM9.37572 11.3039C8.80164 11.4495 8.54781 11.9669 8.84877 12.3781C9.23928 12.9115 10.1923 12.8625 10.5219 12.292C10.8419 11.7382 10.1194 11.1153 9.37572 11.3039ZM13.6206 11.2871C12.9215 11.4297 12.6449 12.0798 13.1113 12.4843C13.3187 12.6641 13.5306 12.7408 13.8203 12.7408C14.8081 12.7408 15.1249 11.7071 14.2449 11.3554C14.0565 11.2801 13.7953 11.2515 13.6206 11.2871Z"
              fill="#0B79BA"/>
    </g>
    <g id="arrow-right">
        <path d="M0.836437 19.68L0.277684 19.024C0.103285 18.818 0.00677277 18.544 0.00677277 18.25C0.00677277 17.9559 0.103285 17.6819 0.277684 17.4759L6.60515 10.0038L0.270911 2.52156C0.096512 2.31556 0 2.04155 0 1.74954C0 1.45754 0.096512 1.18153 0.270911 0.975524L0.824585 0.319508C1.18524 -0.106503 1.77277 -0.106503 2.13512 0.319508L9.70369 9.22773C9.87809 9.43374 10 9.70774 10 10.0038V10.0078C10 10.3018 9.8764 10.5758 9.70369 10.7818L2.15544 19.682C1.98104 19.886 1.7423 20 1.4934 20C1.24619 20 1.01084 19.886 0.836437 19.68Z"
              fill="#6D768C"/>
    </g>
    <g id="arrow-decor-left">
        <path d="M0.321804 4.22094L4.24389 0.318949C4.6271 -0.0622964 5.25792 -0.118994 5.66078 0.2427C6.09036 0.627073 6.10333 1.28594 5.69969 1.68791L3.922 3.45689C3.72116 3.6567 3.86343 3.99767 4.1472 3.99767H10.5576C11.1 3.99767 11.5858 4.4016 11.6141 4.94042C11.6443 5.51444 11.1853 5.99031 10.6142 5.99031H4.1472C3.86343 5.99031 3.72116 6.33167 3.922 6.5311L5.6596 8.26019C6.04281 8.64143 6.0994 9.26902 5.73663 9.66943C5.34989 10.0968 4.68723 10.1097 4.28359 9.70853L0.321804 5.76665C-0.107388 5.34005 -0.107388 4.64755 0.321804 4.22094Z"
              fill="url(#paint0_linear_7_108)"/>
        <path d="M14.3246 3.99768H15.4785C16.0315 3.99768 16.48 4.44384 16.48 4.994C16.48 5.54417 16.0315 5.99032 15.4785 5.99032H14.3246C13.7716 5.99032 13.3235 5.54417 13.3235 4.994C13.3235 4.44384 13.7716 3.99768 14.3246 3.99768Z"
              fill="url(#paint1_linear_7_108)"/>
        <path d="M18.8916 3.99768H18.9997C19.5523 3.99768 20.0007 4.44423 20.0007 4.99439C20.0007 5.54456 19.5523 5.99071 18.9997 5.99071H18.892C18.3386 5.99071 17.8909 5.54456 17.8909 4.99439C17.8909 4.44423 18.3386 3.99768 18.8916 3.99768Z"
              fill="url(#paint2_linear_7_108)"/>
        <defs>
            <linearGradient id="paint0_linear_7_108" x1="5.80769" y1="0" x2="5.80769" y2="10"
                            gradientUnits="userSpaceOnUse">
                <stop stop-color="#22A0D9"/>
                <stop offset="1" stop-color="#33C1CC" stop-opacity="0"/>
            </linearGradient>
            <linearGradient id="paint1_linear_7_108" x1="14.9018" y1="3.99768" x2="14.9018" y2="5.99032"
                            gradientUnits="userSpaceOnUse">
                <stop stop-color="#22A0D9"/>
                <stop offset="1" stop-color="#33C1CC" stop-opacity="0"/>
            </linearGradient>
            <linearGradient id="paint2_linear_7_108" x1="18.9458" y1="3.99768" x2="18.9458" y2="5.99071"
                            gradientUnits="userSpaceOnUse">
                <stop stop-color="#22A0D9"/>
                <stop offset="1" stop-color="#33C1CC" stop-opacity="0"/>
            </linearGradient>
        </defs>
    </g>
    <g id="arrow-decor-right">
        <path d="M19.6788 4.22094L15.7567 0.318949C15.3735 -0.0622964 14.7427 -0.118994 14.3398 0.2427C13.9102 0.627073 13.8973 1.28594 14.3009 1.68791L16.0786 3.45689C16.2795 3.6567 16.1372 3.99767 15.8534 3.99767H9.44302C8.90064 3.99767 8.41485 4.4016 8.38655 4.94042C8.35628 5.51444 8.81535 5.99031 9.38643 5.99031H15.8534C16.1372 5.99031 16.2795 6.33167 16.0786 6.5311L14.341 8.26019C13.9578 8.64143 13.9012 9.26902 14.264 9.66943C14.6507 10.0968 15.3134 10.1097 15.717 9.70853L19.6788 5.76665C20.108 5.34005 20.108 4.64755 19.6788 4.22094Z"
              fill="url(#paint0_linear_7_99)"/>
        <path d="M5.67621 3.99768H4.52226C3.96926 3.99768 3.52081 4.44384 3.52081 4.994C3.52081 5.54417 3.96926 5.99032 4.52226 5.99032H5.67621C6.22921 5.99032 6.67727 5.54417 6.67727 4.994C6.67727 4.44384 6.22921 3.99768 5.67621 3.99768Z"
              fill="url(#paint1_linear_7_99)"/>
        <path d="M1.10914 3.99768H1.00106C0.448452 3.99768 0 4.44423 0 4.99439C0 5.54456 0.448452 5.99071 1.00106 5.99071H1.10875C1.66214 5.99071 2.10981 5.54456 2.10981 4.99439C2.10981 4.44423 1.66214 3.99768 1.10914 3.99768Z"
              fill="url(#paint2_linear_7_99)"/>
        <defs>
            <linearGradient id="paint0_linear_7_99" x1="14.1929" y1="0" x2="14.1929" y2="10"
                            gradientUnits="userSpaceOnUse">
                <stop stop-color="#22A0D9"/>
                <stop offset="1" stop-color="#33C1CC" stop-opacity="0"/>
            </linearGradient>
            <linearGradient id="paint1_linear_7_99" x1="5.09904" y1="3.99768" x2="5.09904" y2="5.99032"
                            gradientUnits="userSpaceOnUse">
                <stop stop-color="#22A0D9"/>
                <stop offset="1" stop-color="#33C1CC" stop-opacity="0"/>
            </linearGradient>
            <linearGradient id="paint2_linear_7_99" x1="1.0549" y1="3.99768" x2="1.0549" y2="5.99071"
                            gradientUnits="userSpaceOnUse">
                <stop stop-color="#22A0D9"/>
                <stop offset="1" stop-color="#33C1CC" stop-opacity="0"/>
            </linearGradient>
        </defs>
    </g>
</svg>