<svg width="19.692261" height="16.000000" viewBox="0 0 19.6923 16" fill="none" xmlns="http://www.w3.org/2000/svg" xmlns:xlink="http://www.w3.org/1999/xlink">
	<desc>
			Created with Pixso.
	</desc>
	<defs/>
	<path id="3239937 (1) 1 (Traced)" d="M4.23267 0.0518799C4.03479 0.12439 3.87158 0.27124 3.81677 0.426025C3.79407 0.48999 3.77539 0.685303 3.77527 0.859863L3.77502 1.17725L2.98621 1.19128C2.10327 1.20679 1.87305 1.245 1.37854 1.45728C0.980225 1.62842 0.51062 2.01636 0.305908 2.34363C-0.0264893 2.87476 0.000488281 2.32153 0.000488281 8.59973C0.000488281 14.8666 -0.0252686 14.3265 0.29834 14.8438C0.595825 15.3196 1.17249 15.7126 1.85315 15.9034L2.19727 16L9.84619 16L17.495 16L17.8146 15.9119C18.7119 15.6644 19.3744 15.106 19.6217 14.3885C19.6873 14.1982 19.6918 13.8273 19.6918 8.59973C19.6918 2.3197 19.719 2.87512 19.3851 2.34155C19.1505 1.96655 18.6748 1.59497 18.194 1.41113C17.7256 1.23218 17.3823 1.18384 16.578 1.18384L15.9172 1.18384L15.917 0.863159C15.9167 0.482178 15.874 0.342529 15.7135 0.199341C15.3672 -0.109619 14.7067 -0.0444336 14.4808 0.321045C14.4132 0.43042 14.3995 0.514526 14.3995 0.818237L14.3995 1.18384L9.84619 1.18384L5.29285 1.18384L5.29285 0.818237C5.29285 0.514526 5.27905 0.43042 5.21155 0.321045C5.04163 0.0462646 4.58813 -0.0784912 4.23267 0.0518799ZM3.7821 2.7406C3.80017 3.16833 3.86108 3.30066 4.10278 3.43787C4.39355 3.60291 4.76367 3.58667 5.03967 3.39685C5.25391 3.24951 5.29285 3.14746 5.29285 2.73376L5.29285 2.37292L9.84619 2.37292L14.3995 2.37292L14.3995 2.73376C14.3995 3.14746 14.4385 3.24951 14.6527 3.39685C14.9287 3.58667 15.2987 3.60291 15.5895 3.43787C15.8347 3.29871 15.895 3.16785 15.9105 2.7406L15.924 2.37292L16.5582 2.37292C17.0991 2.37292 17.2245 2.38232 17.4106 2.43689C17.6854 2.51733 17.9309 2.70203 18.0681 2.93127L18.174 3.10828L18.174 8.59973L18.174 14.0913L18.0696 14.2633C17.9446 14.4696 17.7291 14.6434 17.479 14.74L17.2953 14.8109L9.84619 14.8109L2.39697 14.8109L2.21326 14.74C1.96313 14.6434 1.74768 14.4696 1.62268 14.2633L1.51831 14.0913L1.51831 8.59973C1.51831 3.38318 1.52185 3.10193 1.59009 2.98303C1.70483 2.78284 1.85229 2.6344 2.02563 2.54456C2.31177 2.39612 2.43298 2.37744 3.12183 2.37512L3.7666 2.37292L3.7821 2.7406ZM5.06445 5.42395C4.45703 5.66467 4.36865 6.28491 4.89172 6.63574C5.68127 7.16516 6.81494 6.42908 6.30457 5.71826C6.13489 5.48193 5.89282 5.36646 5.53723 5.35205C5.31409 5.34302 5.24036 5.35425 5.06445 5.42395ZM9.26697 5.40491C8.92993 5.52747 8.72778 5.78088 8.72778 6.08081C8.72778 6.38953 8.93127 6.63074 9.29517 6.75342C9.66162 6.87683 10.0522 6.81165 10.3409 6.57874C10.9097 6.12 10.4794 5.34375 9.65771 5.34619C9.51843 5.34656 9.36328 5.37 9.26697 5.40491ZM13.4102 5.41003C12.5668 5.74536 12.8057 6.7489 13.7433 6.80981C14.3384 6.84851 14.7966 6.48267 14.748 6.00781C14.7239 5.77173 14.5964 5.60535 14.3259 5.45642C14.181 5.37659 14.1108 5.3606 13.8678 5.35217C13.6354 5.34412 13.5482 5.3551 13.4102 5.41003ZM9.48669 8.31775C9.19482 8.36047 8.94885 8.50818 8.80701 8.72595C8.6792 8.92212 8.7041 9.25659 8.85999 9.44128C9.08484 9.7074 9.48999 9.83093 9.89465 9.75696C10.1726 9.70618 10.4836 9.46899 10.5629 9.24756C10.75 8.724 10.165 8.21863 9.48669 8.31775ZM13.6537 8.32227C13.4194 8.35474 13.2709 8.42188 13.1118 8.56738C12.6754 8.9668 12.8864 9.56653 13.5251 9.74304C14.1219 9.90808 14.759 9.54834 14.759 9.04626C14.759 8.84399 14.678 8.68164 14.5073 8.54236C14.2808 8.3573 13.9736 8.2782 13.6537 8.32227ZM5.06226 8.38428C4.61829 8.55652 4.41846 9.01843 4.63953 9.36182C4.8103 9.62732 5.10962 9.77087 5.49255 9.77087C5.93921 9.77087 6.26892 9.57532 6.3949 9.23572C6.45044 9.08618 6.45325 9.0321 6.41296 8.89099C6.35327 8.68188 6.16663 8.48645 5.93555 8.39087C5.69849 8.29285 5.30566 8.28992 5.06226 8.38428ZM5.21289 11.3059C4.98108 11.3644 4.75391 11.5131 4.64539 11.6771C4.52002 11.8667 4.52454 12.1681 4.65552 12.3535C4.78503 12.537 5.03918 12.6849 5.30505 12.7314C5.94971 12.8445 6.55725 12.3687 6.41296 11.8635C6.29187 11.4398 5.72546 11.1766 5.21289 11.3059ZM9.37573 11.304C8.80164 11.4495 8.54785 11.9669 8.84875 12.3781C9.23926 12.9115 10.1924 12.8625 10.522 12.292C10.8419 11.7382 10.1194 11.1154 9.37573 11.304ZM13.6206 11.2871C12.9215 11.4297 12.6449 12.0798 13.1113 12.4843C13.3187 12.6642 13.5305 12.7407 13.8203 12.7407C14.8081 12.7407 15.1249 11.7072 14.2449 11.3553C14.0565 11.28 13.7953 11.2516 13.6206 11.2871Z" fill="#0B79BA" fill-opacity="1.000000" fill-rule="evenodd"/>
</svg>
