<svg width="9.999756" height="5.906006" viewBox="0 0 9.99976 5.90601" fill="none" xmlns="http://www.w3.org/2000/svg" xmlns:xlink="http://www.w3.org/1999/xlink">
	<desc>
			Created with Pixso.
	</desc>
	<defs/>
	<path id="Vector" d="M0.160034 0.494019L0.488037 0.16394C0.591064 0.0610352 0.728027 0.00402832 0.875 0.00402832C1.02197 0.00402832 1.15906 0.0610352 1.26196 0.16394L4.99805 3.901L8.73901 0.160034C8.84204 0.0570068 8.979 0 9.125 0C9.271 0 9.40906 0.0570068 9.51196 0.160034L9.83997 0.487061C10.053 0.699951 10.053 1.047 9.83997 1.26099L5.38599 5.73096C5.28296 5.83398 5.146 5.90601 4.99805 5.90601L4.99597 5.90601C4.849 5.90601 4.71204 5.83301 4.60901 5.73096L0.159058 1.27295C0.0570068 1.17004 0 1.02905 0 0.881958C0 0.735962 0.0570068 0.597046 0.160034 0.494019Z" fill="#028ECE" fill-opacity="1.000000" fill-rule="nonzero"/>
	<path id="Vector" d="M5.35156 3.54749L8.73901 0.160034C8.84204 0.0570068 8.979 0 9.125 0C9.271 0 9.40906 0.0570068 9.51196 0.160034L9.83997 0.487061C10.053 0.699951 10.053 1.047 9.83997 1.26099L5.38599 5.73096C5.28296 5.83398 5.146 5.90601 4.99805 5.90601L4.99597 5.90601C4.849 5.90601 4.71204 5.83301 4.60901 5.73096L0.159058 1.27295C0.0570068 1.17004 0 1.02905 0 0.881958C0 0.735962 0.0570068 0.597046 0.160034 0.494019L0.488037 0.16394C0.591064 0.0610352 0.728027 0.00402832 0.875 0.00402832C1.02197 0.00402832 1.15906 0.0610352 1.26196 0.16394L4.64453 3.54736L4.99805 3.901L5.35156 3.54749ZM0.854614 0.508301Q0.847656 0.511597 0.841797 0.517334L0.841553 0.517578L0.51355 0.847534Q0.508789 0.852417 0.505615 0.858032Q0.5 0.86853 0.5 0.881958Q0.5 0.905762 0.511841 0.918701L0.512817 0.9198L4.96082 5.37573Q4.98022 5.3949 4.9978 5.40381Q5.01428 5.39563 5.03186 5.37805L9.4856 0.908325Q9.49219 0.901733 9.49573 0.893799Q9.49976 0.884644 9.49976 0.873657Q9.49976 0.860718 9.49426 0.85083Q9.49146 0.845459 9.48694 0.841064L9.15845 0.51355Q9.15259 0.50769 9.14539 0.504272Q9.13623 0.5 9.125 0.5Q9.11597 0.5 9.10828 0.503052Q9.09961 0.50647 9.09253 0.51355L4.99792 4.60815L0.908447 0.517578Q0.902588 0.511597 0.895386 0.508301Q0.88623 0.504028 0.875 0.504028Q0.86377 0.504028 0.854614 0.508301Z" fill="#000000" fill-opacity="1.000000" fill-rule="evenodd"/>
</svg>
